<svg xmlns="http://www.w3.org/2000/svg" viewBox="0 0 512 512">
  <defs>
    <linearGradient id="bg" x1="0" y1="0" x2="1" y2="1">
      <stop offset="0%" stop-color="#1e3a8a"/>
      <stop offset="100%" stop-color="#0f172a"/>
    </linearGradient>
  </defs>
  <rect width="512" height="512" rx="96" fill="url(#bg)"/>
  <g fill="#fbbf24">
    <path d="M144 176h224a32 32 0 0 1 32 32v96a80 80 0 0 1-80 80H192a80 80 0 0 1-80-80v-64a64 64 0 0 1 64-64Z" fill="#facc15"/>
    <path d="M176 144h160a32 32 0 0 1 32 32v32H144v-32a32 32 0 0 1 32-32Z" fill="#fde68a"/>
  </g>
  <path d="M208 272h96a48 48 0 0 1 48 48v32H160v-32a48 48 0 0 1 48-48Z" fill="#0f172a" opacity=".5"/>
  <text x="50%" y="58%" font-family="Arial, Helvetica, sans-serif" font-size="160" font-weight="700" text-anchor="middle" fill="#ffffff">JP</text>
</svg>

